<svg height="58" viewBox="0 0 58 58" width="58" xmlns="http://www.w3.org/2000/svg"><g fill="none" fill-rule="evenodd"><circle cx="29" cy="29" fill="#001838" r="29"/><g stroke="#fff" stroke-linecap="round" stroke-width="2.4" transform="translate(13 11)"><path d="m2.69836381 30.4640411c-.8746872-2.3899828-1.29836381-4.7526516-1.29836381-7.2382338 0-2.1578131.39634264-4.1107705 1.16169394-5.790587 2.29605389-4.9984785 7.39384023-8.2352203 12.98363816-8.2352203 7.8585178-.01363487 14.2546679 6.2822628 14.2546679 14.0258073 0 2.5948386-2.13205 4.6980235-4.7561116 4.6980235s-4.7561117-2.1031849-4.7561117-4.6980235c0-2.5402103-2.1183831-4.6024241-4.7151107-4.6024241s-4.7151107 2.0622138-4.7151107 4.6024241c0 3.4825465 1.3120308 6.7602373 3.6764197 9.2048483 1.8587103 1.9119863 3.6490856 2.9635787 6.3824831 3.7693444"/><path d="m11.5446043 35.8c-1.59928056-1.6356877-2.36474818-2.6171004-3.52661869-4.8116481-1.18920863-2.180917-1.81798561-4.8798017-1.81798561-7.8376704 0-5.1524163 4.2647482-9.3506815 9.5-9.3506815s9.5 4.1982652 9.5 9.3506815"/><path d="m15.4 23.2c0 2.9501511 1.475122 5.7507553 3.9336585 7.4909366 1.4614635 1.0196374 3.155122 1.5090634 5.1902439 1.5090634.4507317 0 1.2429269-.0543807 2.0760976-.1903323"/><path d="m31.2 12.7312081c-1.735611-2.5315437-3.9358739-4.52651011-6.5461235-5.91610743-2.7059133-1.44463087-5.8354797-2.21510067-9.0333772-2.21510067-3.2252299 0-6.35479628.7704698-9.06070955 2.24261745-2.59658344 1.38959732-4.79684625 3.38456375-6.55978975 5.95738255"/><path d="m5 2.8c3.29082745-1.85294118 6.8536241-2.8 10.6067992-2.8 3.6987813 0 6.9624118.86470588 10.5932008 2.8"/></g></g></svg>